<svg width="21" height="20" viewBox="0 0 21 20" fill="none" xmlns="http://www.w3.org/2000/svg">
<path d="M17.9708 5.83317C17.9061 4.27292 17.6972 3.3163 17.0237 2.64281C16.0474 1.6665 14.476 1.6665 11.3333 1.6665H9.66667C6.52397 1.6665 4.95262 1.6665 3.97631 2.64281C3 3.61913 3 5.19047 3 8.33317V11.6665C3 14.8092 3 16.3806 3.97631 17.3568C4.95262 18.3332 6.52397 18.3332 9.66667 18.3332H11.3333C14.476 18.3332 16.0474 18.3332 17.0237 17.3568C18 16.3806 18 14.8092 18 11.6665V9.1665" stroke="#00A9FF" stroke-linecap="round"/>
<path d="M5.5 10C5.5 8.8215 5.5 8.23223 5.86612 7.86612C6.23223 7.5 6.82149 7.5 8 7.5H13C14.1785 7.5 14.7677 7.5 15.1339 7.86612C15.5 8.23223 15.5 8.8215 15.5 10V13.3333C15.5 14.5118 15.5 15.1011 15.1339 15.4672C14.7677 15.8333 14.1785 15.8333 13 15.8333H8C6.82149 15.8333 6.23223 15.8333 5.86612 15.4672C5.5 15.1011 5.5 14.5118 5.5 13.3333V10Z" stroke="#00A9FF"/>
<path d="M6.33301 5H10.4997" stroke="#00A9FF" stroke-linecap="round"/>
</svg>
