<svg width="64" height="64" viewBox="0 0 64 64" fill="none" xmlns="http://www.w3.org/2000/svg">
<g clip-path="url(#clip0_509_131)">
<path d="M63.9973 2.85537C63.9963 2.80378 63.9932 2.75219 63.9895 2.7008C63.9862 2.65484 63.9829 2.60887 63.9777 2.56368C63.9721 2.51733 63.9643 2.47137 63.9566 2.42541C63.9482 2.37653 63.9405 2.32766 63.9298 2.27956C63.9203 2.2369 63.9085 2.19501 63.8972 2.15273C63.884 2.10366 63.8712 2.0544 63.8555 2.0065C63.8417 1.96422 63.8255 1.92272 63.8097 1.88102C63.7923 1.83525 63.7756 1.78928 63.756 1.74468C63.737 1.70104 63.7153 1.65857 63.694 1.61571C63.6736 1.57479 63.6538 1.53348 63.6315 1.49372C63.6075 1.45047 63.5807 1.40878 63.5543 1.3665C63.5305 1.32848 63.507 1.29028 63.4816 1.25343C63.4541 1.21387 63.4244 1.17585 63.3947 1.13745C63.3656 1.09944 63.3365 1.06162 63.3055 1.02536C63.2764 0.991224 63.2456 0.958448 63.2147 0.925479C63.1787 0.887079 63.1426 0.849261 63.1046 0.812606C63.0918 0.800388 63.0807 0.786812 63.0677 0.774788C63.0487 0.757139 63.0282 0.7424 63.0088 0.725527C62.9688 0.690424 62.9285 0.656485 62.887 0.623515C62.8515 0.595588 62.8154 0.568824 62.779 0.542836C62.7388 0.514133 62.6981 0.4864 62.6566 0.45983C62.6166 0.43423 62.5765 0.409794 62.5356 0.386327C62.4946 0.362861 62.4533 0.340751 62.4114 0.319224C62.3686 0.297309 62.3255 0.276364 62.2819 0.25697C62.2392 0.23777 62.1962 0.219927 62.1525 0.202861C62.1079 0.185406 62.0633 0.168921 62.0183 0.153794C61.9739 0.138861 61.9287 0.125285 61.8833 0.112291C61.8372 0.099297 61.791 0.0872727 61.7445 0.0766061C61.6993 0.0661333 61.6537 0.0570182 61.6078 0.0486788C61.5587 0.0397576 61.5094 0.0323879 61.46 0.0259879C61.4159 0.0203636 61.3717 0.0157091 61.3273 0.0120242C61.2742 0.00775758 61.2208 0.00523636 61.1677 0.00387879C61.1415 0.00329697 61.1167 0 61.0909 0H49.4545C47.8479 0 46.5455 1.3025 46.5455 2.90909C46.5455 4.51568 47.8479 5.81818 49.4545 5.81818H54.4328L36.768 24.8962L29.2086 17.3368C28.6497 16.7777 27.8891 16.4742 27.0964 16.4852C26.3059 16.5004 25.5556 16.8365 25.018 17.4163L0.775556 43.5726C-0.316517 44.7509 -0.246698 46.5914 0.931677 47.6837C1.49158 48.2027 2.20082 48.4592 2.9085 48.4592C3.69008 48.4592 4.46952 48.146 5.0428 47.5278L27.2312 23.5877L34.7916 31.148C35.3509 31.7073 36.1195 32.0175 36.9045 31.9996C37.6954 31.9845 38.446 31.6478 38.9832 31.0675L58.1818 10.3327V14.5455C58.1818 16.152 59.4843 17.4545 61.0909 17.4545C62.6975 17.4545 64 16.152 64 14.5455V2.90909C64 2.89086 63.9977 2.87341 63.9973 2.85537Z" fill="#00A9FF"/>
<path d="M61.0909 58.1818H2.90909C1.3025 58.1818 0 59.4843 0 61.0909C0 62.6974 1.3025 63.9999 2.90909 63.9999H61.0909C62.6975 63.9999 64 62.6974 64 61.0909C64 59.4843 62.6975 58.1818 61.0909 58.1818Z" fill="#00A9FF"/>
</g>
<defs>
<clipPath id="clip0_509_131">
<rect width="64" height="64" fill="white"/>
</clipPath>
</defs>
</svg>
