<svg width="64" height="64" viewBox="0 0 64 64" fill="none" xmlns="http://www.w3.org/2000/svg">
<g clip-path="url(#clip0_509_120)">
<path d="M61.3813 23.4267C60.6017 22.7164 59.6897 22.1668 58.6975 21.8091C57.7053 21.4515 56.6523 21.2929 55.5988 21.3425C54.5453 21.392 53.5119 21.6487 52.5576 22.0978C51.6033 22.5469 50.7469 23.1798 50.0373 23.96L41.4587 33.3867C40.7131 32.1507 39.661 31.1282 38.4043 30.4181C37.1476 29.708 35.7288 29.3343 34.2853 29.3334H8C5.87827 29.3334 3.84344 30.1762 2.34315 31.6765C0.842855 33.1768 0 35.2116 0 37.3334L0 56C0 58.1218 0.842855 60.1566 2.34315 61.6569C3.84344 63.1572 5.87827 64 8 64H35.8613L61.96 34.7067C63.3612 33.1259 64.0857 31.0581 63.9775 28.9484C63.8693 26.8387 62.937 24.8559 61.3813 23.4267ZM57.9787 31.16L33.472 58.6667H8C7.29276 58.6667 6.61448 58.3858 6.11438 57.8857C5.61428 57.3856 5.33333 56.7073 5.33333 56V37.3334C5.33333 36.6261 5.61428 35.9479 6.11438 35.4478C6.61448 34.9477 7.29276 34.6667 8 34.6667H34.2853C35.0576 34.6634 35.8022 34.9535 36.3686 35.4785C36.935 36.0034 37.2808 36.7239 37.3361 37.4942C37.3913 38.2645 37.1519 39.027 36.6662 39.6273C36.1805 40.2277 35.4848 40.6212 34.72 40.728L20.9547 42.6934L21.712 47.9734L35.4747 46.0054C36.9842 45.784 38.4052 45.1563 39.5856 44.1897C40.7659 43.223 41.6614 41.9537 42.176 40.5174L53.9813 27.5467C54.2186 27.2839 54.5059 27.0709 54.8264 26.9203C55.1469 26.7696 55.4942 26.6843 55.848 26.6694C56.5614 26.6409 57.2578 26.8915 57.7893 27.368C58.3113 27.8488 58.6237 28.5152 58.6591 29.224C58.6945 29.9327 58.4501 30.627 57.9787 31.1574V31.16ZM27.7947 24.4L29.3333 25.4907L30.872 24.4C32.08 23.5467 42.6667 15.8454 42.6667 8.53338C42.7321 6.34235 41.9273 4.21456 40.4281 2.61542C38.9288 1.01627 36.8574 0.0759179 34.6667 4.53952e-05C32.7121 -0.0249328 30.8156 0.664434 29.3333 1.93871C27.851 0.664434 25.9546 -0.0249328 24 4.53952e-05C21.8093 0.0759179 19.7378 1.01627 18.2386 2.61542C16.7394 4.21456 15.9345 6.34235 16 8.53338C16 15.8454 26.5867 23.5467 27.7947 24.4ZM24 5.33338C24.3563 5.30981 24.7135 5.36263 25.0477 5.48831C25.3819 5.61398 25.6855 5.80961 25.9379 6.0621C26.1904 6.31458 26.3861 6.6181 26.5117 6.95232C26.6374 7.28654 26.6902 7.64375 26.6667 8.00005H32C31.9764 7.64375 32.0293 7.28654 32.1549 6.95232C32.2806 6.6181 32.4762 6.31458 32.7287 6.0621C32.9812 5.80961 33.2847 5.61398 33.6189 5.48831C33.9532 5.36263 34.3104 5.30981 34.6667 5.33338C35.4417 5.41115 36.1553 5.78996 36.654 6.38838C37.1527 6.98679 37.3966 7.757 37.3333 8.53338C37.3333 11.3974 33.0667 15.9147 29.3333 18.8827C26.0267 16.216 21.3333 11.6107 21.3333 8.53338C21.2701 7.757 21.514 6.98679 22.0127 6.38838C22.5113 5.78996 23.2249 5.41115 24 5.33338Z" fill="#00A9FF"/>
</g>
<defs>
<clipPath id="clip0_509_120">
<rect width="64" height="64" fill="white"/>
</clipPath>
</defs>
</svg>
