<svg width="90" height="108" viewBox="0 0 90 108" fill="none" xmlns="http://www.w3.org/2000/svg">
<path d="M47.1021 44.7587H47.0584C47.0656 44.7753 47.0729 44.7919 47.0802 44.8085C46.7255 45.6168 46.4127 46.4475 46.1444 47.2979C45.4014 49.6535 45.0006 52.1599 44.9999 54.7595V44.7587V39.8341V39.8298V39.8255C45.0001 38.9868 45.0419 38.1578 45.1234 37.3404C45.3858 34.7089 46.0597 32.198 47.0802 29.8723C47.0874 29.8557 47.0947 29.8391 47.1021 29.8226C47.4722 28.9842 47.8873 28.17 48.3445 27.383C50.0376 24.4686 52.307 21.9278 54.9975 19.9149C56.0519 19.1261 57.1709 18.4184 58.3453 17.8011L59.9499 19.9315L62.9264 23.8832L67.3999 29.8226L67.5279 29.9925C64.8561 30.2536 62.3078 30.9336 59.9499 31.9655C58.1827 32.739 56.5224 33.7102 54.9975 34.8511C53.9847 35.6088 53.0315 36.4413 52.1464 37.3404C50.0451 39.4748 48.3268 41.9843 47.1021 44.7587Z" fill="url(#paint0_linear_254_877)"/>
<path d="M55.7694 14.3812C54.4663 15.2811 53.2532 16.3013 52.1464 17.4255C50.0325 19.5726 48.3062 22.0994 47.0802 24.8936C46.7255 25.7019 46.4127 26.5326 46.1444 27.383C45.8932 28.1797 45.681 28.9936 45.5102 29.8226C45.5097 29.8249 45.5093 29.8273 45.5088 29.8297C45.1752 31.4516 44.9999 33.131 44.9999 34.8511V29.8226V24.8706V19.9187V19.9149C44.9999 19.0747 45.0417 18.2443 45.1234 17.4255C45.3858 14.7941 46.0597 12.2831 47.0802 9.95745C47.7116 8.51828 48.4758 7.15006 49.3573 5.86812L55.7694 14.3812Z" fill="url(#paint1_linear_254_877)"/>
<path d="M59.9499 36.9443C63.0254 35.5982 66.4251 34.8511 69.9999 34.8511C70.4053 34.8511 70.8084 34.8607 71.209 34.8797L74.6182 39.4059L77.7653 43.5843L78.6499 44.7587L85.7496 54.1847L87.9715 57.1346L89.9999 59.6949C89.5299 59.1244 88.3718 57.7818 87.8535 57.2553C86.9683 56.3562 86.0152 55.5237 85.0024 54.766C80.8237 51.6398 75.6291 49.7872 69.9999 49.7872C66.4251 49.7872 63.0254 50.5344 59.9499 51.8804C58.1827 52.6539 56.5224 53.6251 54.9975 54.766C53.9847 55.5237 53.0316 56.3562 52.1464 57.2553C51.3917 58.0218 50.6865 58.8367 50.0358 59.6949C48.8637 61.2406 47.8685 62.9267 47.0802 64.7234C46.7255 65.5317 46.4127 66.3624 46.1444 67.2128C45.4121 69.5345 45.0036 72.2627 44.9999 74.7V59.7446C45.0016 58.9214 45.0434 58.0579 45.1234 57.2553C45.3858 54.6238 46.0597 52.1129 47.0802 49.7872C47.4557 48.9313 47.8783 48.1004 48.3445 47.2979C48.8569 46.4159 49.4221 45.568 50.0358 44.7587C51.4498 42.8939 53.1212 41.2335 54.9975 39.8298C56.2725 38.876 57.642 38.0407 59.0896 37.3404C59.3734 37.2031 59.6602 37.071 59.9499 36.9443Z" fill="url(#paint2_linear_254_877)"/>
<path d="M44.9999 0C46.0548 1.45237 47.7011 3.66925 47.7011 3.66925C47.0821 4.88165 46.5598 6.1513 46.1444 7.46809C45.4008 9.82561 44.9999 12.3343 44.9999 14.9362V0Z" fill="url(#paint3_linear_254_877)"/>
<path d="M42.8979 44.7587H42.9416C42.9343 44.7753 42.9271 44.7919 42.9198 44.8085C43.2745 45.6168 43.5873 46.4475 43.8555 47.2979C44.5985 49.6535 44.9993 52.1599 45 54.7595V44.7587V39.8341V39.8298V39.8255C44.9999 38.9868 44.9581 38.1578 44.8766 37.3404C44.6142 34.7089 43.9403 32.198 42.9198 29.8723C42.9125 29.8557 42.9052 29.8391 42.8979 29.8226C42.5278 28.9842 42.1126 28.17 41.6554 27.383C39.9624 24.4686 37.693 21.9278 35.0024 19.9149C33.9481 19.1261 32.829 18.4184 31.6546 17.8011L30.05 19.9315L27.0736 23.8832L22.6 29.8226L22.472 29.9925C25.1438 30.2536 27.6922 30.9336 30.05 31.9655C31.8173 32.739 33.4775 33.7102 35.0024 34.8511C36.0153 35.6088 36.9684 36.4413 37.8536 37.3404C39.9548 39.4748 41.6732 41.9843 42.8979 44.7587Z" fill="url(#paint4_linear_254_877)"/>
<path d="M34.2305 14.3812C35.5337 15.2811 36.7467 16.3013 37.8536 17.4255C39.9674 19.5726 41.6937 22.0994 42.9198 24.8936C43.2745 25.7019 43.5873 26.5326 43.8555 27.383C44.1068 28.1797 44.3189 28.9936 44.4897 29.8226C44.4902 29.8249 44.4907 29.8273 44.4912 29.8297C44.8248 31.4516 45 33.131 45 34.8511V29.8226V24.8706V19.9187V19.9149C45 19.0747 44.9582 18.2443 44.8766 17.4255C44.6142 14.7941 43.9403 12.2831 42.9198 9.95745C42.2883 8.51828 41.5241 7.15006 40.6426 5.86812L34.2305 14.3812Z" fill="url(#paint5_linear_254_877)"/>
<path d="M30.05 36.9443C26.9745 35.5982 23.5749 34.8511 20 34.8511C19.5947 34.8511 19.1916 34.8607 18.791 34.8797L15.3818 39.4059L12.2346 43.5843L11.35 44.7587L4.25035 54.1847L2.0284 57.1346L0 59.6949C0.47005 59.1244 1.62811 57.7818 2.14642 57.2553C3.0316 56.3562 3.98474 55.5237 4.99756 54.766C9.17628 51.6398 14.3709 49.7872 20 49.7872C23.5749 49.7872 26.9745 50.5344 30.05 51.8804C31.8173 52.6539 33.4775 53.6251 35.0024 54.766C36.0153 55.5237 36.9684 56.3562 37.8536 57.2553C38.6082 58.0218 39.3134 58.8367 39.9642 59.6949C41.1362 61.2406 42.1314 62.9267 42.9198 64.7234C43.2745 65.5317 43.5873 66.3624 43.8555 67.2128C44.5878 69.5345 44.9963 72.2627 45 74.7V59.7446C44.9984 58.9214 44.9566 58.0579 44.8766 57.2553C44.6142 54.6238 43.9403 52.1129 42.9198 49.7872C42.5442 48.9313 42.1217 48.1004 41.6554 47.2979C41.143 46.4159 40.5779 45.568 39.9642 44.7587C38.5501 42.8939 36.8787 41.2335 35.0024 39.8298C33.7275 38.876 32.3579 38.0407 30.9103 37.3404C30.6265 37.2031 30.3397 37.071 30.05 36.9443Z" fill="url(#paint6_linear_254_877)"/>
<path d="M45 0C43.9451 1.45237 42.2988 3.66925 42.2988 3.66925C42.9179 4.88165 43.4401 6.1513 43.8555 7.46809C44.5991 9.82561 45 12.3343 45 14.9362V0Z" fill="url(#paint7_linear_254_877)"/>
<path d="M4.40844 88.3287C1.65833 88.3287 0.000183105 86.683 0.000183105 84.3172C0.000183105 81.9515 1.65833 80.1001 4.40844 80.1001H26.2879V85.0372H7.05743C6.57212 85.0372 6.39013 85.4075 6.39013 85.6544C6.39013 85.9012 6.57212 86.2715 7.05743 86.2715H22.6885C25.4386 86.2715 27.0968 87.9172 27.0968 90.283C27.0968 92.6487 25.4386 94.5001 22.6885 94.5001H0.000183105V89.563H20.0395C20.5249 89.563 20.7068 89.1927 20.7068 88.9458C20.7068 88.699 20.5249 88.3287 20.0395 88.3287H4.40844Z" fill="#00A9FF"/>
<path d="M30.3401 94.5001V80.1001H36.73V87.9995L47.9731 80.1001H57.2345L46.9823 87.3001L57.2345 94.5001H47.9731L42.3516 90.5504L36.73 94.5001H30.3401Z" fill="#00A9FF"/>
<path d="M71.7403 94.5001V89.563L59.8704 80.1001H68.3027L74.9353 85.4075L81.5679 80.1001H90.0002L78.1302 89.563V94.5001H71.7403Z" fill="#00A9FF"/>
<line x1="0.000366211" y1="97.8751" x2="90.0004" y2="97.8751" stroke="#89CFF3" stroke-width="0.45"/>
<path d="M0.000549316 106.003V100.097H4.54745V101.271H1.28218V102.663H4.36712V103.725H1.28218V106.003H0.000549316Z" fill="#89CFF3"/>
<path d="M10.93 106.003V100.097H12.2116V106.003H10.93Z" fill="#89CFF3"/>
<path d="M18.5989 106.003V100.097H20.0866L22.5984 104.07H22.7208V100.097H23.9766V106.003H22.5147L19.9707 102.031H19.8548V106.003H18.5989Z" fill="#89CFF3"/>
<path d="M34.8281 106.003L34.4932 105.012H31.8269L31.492 106.003H30.1653L32.2584 100.097H34.0617L36.1613 106.003H34.8281ZM32.1876 103.95H34.1326L33.2825 101.426H33.0377L32.1876 103.95Z" fill="#89CFF3"/>
<path d="M42.3521 106.003V100.097H43.8398L46.3516 104.07H46.4739V100.097H47.7298V106.003H46.2678L43.7239 102.031H43.608V106.003H42.3521Z" fill="#89CFF3"/>
<path d="M56.9777 106.2C55.2259 106.2 54.0151 104.906 54.0151 103.05C54.0151 101.194 55.2259 99.9001 56.9777 99.9001C58.1627 99.9001 59.3799 100.477 59.644 102.213H58.4139C58.182 101.454 57.6475 101.117 56.9777 101.117C56.0181 101.117 55.2839 101.911 55.2839 103.05C55.2839 104.182 56.0181 104.984 56.9777 104.984C57.6475 104.984 58.182 104.646 58.4139 103.88H59.644C59.3799 105.624 58.1756 106.2 56.9777 106.2Z" fill="#89CFF3"/>
<path d="M65.9392 106.003V100.097H67.2209V106.003H65.9392Z" fill="#89CFF3"/>
<path d="M78.0778 106.003L77.7429 105.012H75.0766L74.7417 106.003H73.415L75.5081 100.097H77.3114L79.411 106.003H78.0778ZM75.4373 103.95H77.3823L76.5321 101.426H76.2874L75.4373 103.95Z" fill="#89CFF3"/>
<path d="M85.6018 106.003V100.097H86.8834V104.829H90.0005V106.003H85.6018Z" fill="#89CFF3"/>
<line x1="0.000549316" y1="107.775" x2="90.0005" y2="107.775" stroke="#89CFF3" stroke-width="0.45"/>
<defs>
<linearGradient id="paint0_linear_254_877" x1="89.9999" y1="59.6451" x2="45.0389" y2="74.7965" gradientUnits="userSpaceOnUse">
<stop stop-color="#00A9FF"/>
<stop offset="0.497545" stop-color="#89CFF3"/>
<stop offset="1" stop-color="#00A9FF"/>
</linearGradient>
<linearGradient id="paint1_linear_254_877" x1="89.9999" y1="59.6451" x2="45.0389" y2="74.7965" gradientUnits="userSpaceOnUse">
<stop stop-color="#00A9FF"/>
<stop offset="0.497545" stop-color="#89CFF3"/>
<stop offset="1" stop-color="#00A9FF"/>
</linearGradient>
<linearGradient id="paint2_linear_254_877" x1="89.9999" y1="59.6451" x2="45.0389" y2="74.7965" gradientUnits="userSpaceOnUse">
<stop stop-color="#00A9FF"/>
<stop offset="0.497545" stop-color="#89CFF3"/>
<stop offset="1" stop-color="#00A9FF"/>
</linearGradient>
<linearGradient id="paint3_linear_254_877" x1="89.9999" y1="59.6451" x2="45.0389" y2="74.7965" gradientUnits="userSpaceOnUse">
<stop stop-color="#00A9FF"/>
<stop offset="0.497545" stop-color="#89CFF3"/>
<stop offset="1" stop-color="#00A9FF"/>
</linearGradient>
<linearGradient id="paint4_linear_254_877" x1="7.36076e-07" y1="59.6451" x2="44.961" y2="74.7965" gradientUnits="userSpaceOnUse">
<stop stop-color="#00A9FF"/>
<stop offset="0.497545" stop-color="#89CFF3"/>
<stop offset="1" stop-color="#00A9FF"/>
</linearGradient>
<linearGradient id="paint5_linear_254_877" x1="7.36076e-07" y1="59.6451" x2="44.961" y2="74.7965" gradientUnits="userSpaceOnUse">
<stop stop-color="#00A9FF"/>
<stop offset="0.497545" stop-color="#89CFF3"/>
<stop offset="1" stop-color="#00A9FF"/>
</linearGradient>
<linearGradient id="paint6_linear_254_877" x1="7.36076e-07" y1="59.6451" x2="44.961" y2="74.7965" gradientUnits="userSpaceOnUse">
<stop stop-color="#00A9FF"/>
<stop offset="0.497545" stop-color="#89CFF3"/>
<stop offset="1" stop-color="#00A9FF"/>
</linearGradient>
<linearGradient id="paint7_linear_254_877" x1="7.36076e-07" y1="59.6451" x2="44.961" y2="74.7965" gradientUnits="userSpaceOnUse">
<stop stop-color="#00A9FF"/>
<stop offset="0.497545" stop-color="#89CFF3"/>
<stop offset="1" stop-color="#00A9FF"/>
</linearGradient>
</defs>
</svg>
