<svg width="18" height="18" viewBox="0 0 18 18" fill="none" xmlns="http://www.w3.org/2000/svg">
<path d="M17.3333 13.1V15.6C17.3343 15.8321 17.2867 16.0618 17.1937 16.2745C17.1008 16.4871 16.9644 16.678 16.7934 16.8349C16.6224 16.9918 16.4205 17.1113 16.2006 17.1856C15.9808 17.26 15.7478 17.2876 15.5167 17.2667C12.9523 16.9881 10.4892 16.1118 8.32498 14.7084C6.31151 13.4289 4.60443 11.7219 3.32499 9.70837C1.91663 7.53438 1.04019 5.0592 0.766652 2.48337C0.745827 2.25293 0.773214 2.02067 0.847069 1.80139C0.920923 1.58211 1.03963 1.38061 1.19562 1.20972C1.35162 1.03883 1.54149 0.902298 1.75314 0.808808C1.9648 0.715319 2.1936 0.666925 2.42499 0.666707H4.92499C5.32941 0.662726 5.72148 0.805939 6.02812 1.06965C6.33476 1.33336 6.53505 1.69958 6.59165 2.10004C6.69717 2.9001 6.89286 3.68565 7.17499 4.44171C7.2871 4.73998 7.31137 5.06414 7.24491 5.37577C7.17844 5.68741 7.02404 5.97347 6.79998 6.20004L5.74165 7.25837C6.92795 9.34466 8.65536 11.0721 10.7417 12.2584L11.8 11.2C12.0266 10.976 12.3126 10.8216 12.6243 10.7551C12.9359 10.6887 13.26 10.7129 13.5583 10.825C14.3144 11.1072 15.0999 11.3029 15.9 11.4084C16.3048 11.4655 16.6745 11.6694 16.9388 11.9813C17.203 12.2932 17.3435 12.6914 17.3333 13.1Z" stroke="#AAAAAA" stroke-linecap="round" stroke-linejoin="round"/>
</svg>
