<svg width="64" height="64" viewBox="0 0 64 64" fill="none" xmlns="http://www.w3.org/2000/svg">
<path d="M31.9997 58.6664C17.2726 58.6664 5.33332 46.7272 5.33332 32.0001C5.33332 17.273 17.2726 5.33358 31.9997 5.33358C44.2601 5.33358 55.6165 13.5889 58.7668 24.7259C59.1677 26.143 60.6414 26.9669 62.0586 26.566C63.4758 26.1651 64.2996 24.6914 63.8988 23.2742C60.0873 9.80016 46.6062 0.00038147 31.9997 0.00038147C14.3271 0.00038147 0 14.3275 0 32.0001C0 49.6726 14.3271 63.9998 31.9997 63.9998C33.4724 63.9998 34.6663 62.8059 34.6663 61.3332C34.6663 59.8604 33.4724 58.6664 31.9997 58.6664Z" fill="white"/>
<path d="M31.9998 16.0002C30.527 16.0002 29.3332 17.1941 29.3332 18.6668V29.3333H23.9999C22.5271 29.3333 21.3333 30.5272 21.3333 31.9999C21.3333 33.4727 22.5271 34.6665 23.9999 34.6665H31.9998C33.4725 34.6665 34.6664 33.4727 34.6664 31.9999V18.6668C34.6664 17.1941 33.4725 16.0002 31.9998 16.0002Z" fill="white"/>
<path d="M55.9994 42.6666H53.3328V37.3333H58.6662C60.1389 37.3333 61.3328 36.1394 61.3328 34.6667C61.3328 33.1939 60.1389 32.0001 58.6662 32.0001H53.3328V29.3335C53.3328 27.8607 52.139 26.6669 50.6663 26.6669C49.1935 26.6669 47.9997 27.8607 47.9997 29.3335V32.0001H45.3331C40.9137 32.0001 37.3331 35.5807 37.3331 40C37.3331 44.4193 40.9137 47.9999 45.3331 47.9999H47.9995V53.3332H42.6662C41.1935 53.3332 39.9996 54.5271 39.9996 55.9998C39.9996 57.4726 41.1935 58.6664 42.6662 58.6664H47.9995V61.333C47.9995 62.8058 49.1934 63.9996 50.6661 63.9996C52.1389 63.9996 53.3327 62.8058 53.3327 61.333V58.6664H55.9994C60.4188 58.6664 63.9994 55.0858 63.9994 50.6665C63.9994 46.2472 60.4188 42.6666 55.9994 42.6666ZM45.3329 42.6666C43.8591 42.6666 42.6663 41.4738 42.6663 40C42.6663 38.5261 43.8591 37.3334 45.3329 37.3334H47.9995V42.6667H45.3329V42.6666ZM55.9994 53.3331H53.3328V47.9998H55.9994C57.4733 47.9998 58.666 49.1925 58.666 50.6664C58.666 52.1402 57.4733 53.3331 55.9994 53.3331Z" fill="white"/>
</svg>
