<svg width="190" height="40" viewBox="0 0 190 40" fill="none" xmlns="http://www.w3.org/2000/svg">
<path d="M25.0219 23.9672H24.9985C25.0024 23.9761 25.0063 23.985 25.0102 23.9938C24.8203 24.4267 24.6528 24.8715 24.5091 25.3268C24.1113 26.5882 23.8966 27.9304 23.8963 29.3224V23.9672V21.3302V21.3279V21.3256C23.8964 20.8765 23.9187 20.4326 23.9624 19.9949C24.1029 18.5858 24.4638 17.2412 25.0102 15.9959C25.0141 15.987 25.018 15.9781 25.0219 15.9692C25.2201 15.5203 25.4424 15.0843 25.6872 14.6629C26.5938 13.1023 27.809 11.7418 29.2497 10.6639C29.8143 10.2416 30.4135 9.86259 31.0424 9.53203L31.9016 10.6728L33.4954 12.7888L35.8909 15.9692L35.9595 16.0602C34.5288 16.2001 33.1642 16.5642 31.9016 17.1168C30.9553 17.5309 30.0663 18.051 29.2497 18.6619C28.7074 19.0676 28.197 19.5134 27.723 19.9949C26.5978 21.1378 25.6777 22.4815 25.0219 23.9672Z" fill="url(#paint0_linear_272_479)"/>
<path d="M29.6631 7.70077C28.9653 8.18267 28.3157 8.72893 27.723 9.33094C26.5911 10.4807 25.6667 11.8337 25.0102 13.3299C24.8203 13.7627 24.6528 14.2076 24.5091 14.6629C24.3746 15.0895 24.261 15.5254 24.1695 15.9692C24.1693 15.9705 24.169 15.9718 24.1688 15.9731C23.9901 16.8415 23.8963 17.7408 23.8963 18.6619V15.9692V13.3176V10.666V10.6639C23.8963 10.2141 23.9187 9.76937 23.9624 9.33094C24.1029 7.92185 24.4638 6.5773 25.0102 5.33197C25.3483 4.56133 25.7575 3.82868 26.2296 3.14223L29.6631 7.70077Z" fill="url(#paint1_linear_272_479)"/>
<path d="M31.9016 19.7827C33.5485 19.062 35.3689 18.6619 37.2832 18.6619C37.5002 18.6619 37.7161 18.667 37.9306 18.6772L39.7561 21.1009L41.4413 23.3383L41.915 23.9672L45.7167 29.0145L46.9065 30.5942L48 31.8C47.7483 31.4945 47.1209 30.9407 46.8433 30.6588C46.3693 30.1774 45.8589 29.7316 45.3166 29.3258C43.079 27.6518 40.2974 26.6598 37.2832 26.6598C35.3689 26.6598 33.5485 27.0599 31.9016 27.7807C30.9553 28.1949 30.0663 28.7149 29.2497 29.3258C28.7074 29.7316 28.197 30.1774 27.723 30.6588C27.3189 31.0693 26.9413 31.5056 26.5929 31.9651C25.9652 32.7928 25.4323 33.6957 25.0102 34.6578C24.8203 35.0906 24.6528 35.5354 24.5091 35.9908C24.117 37.234 23.8983 38.6949 23.8963 40V31.9918C23.8972 31.551 23.9195 31.0886 23.9624 30.6588C24.1029 29.2497 24.4638 27.9052 25.0102 26.6598C25.2113 26.2015 25.4376 25.7566 25.6872 25.3268C25.9616 24.8545 26.2642 24.4006 26.5929 23.9672C27.35 22.9686 28.245 22.0795 29.2497 21.3279C29.9325 20.8171 30.6658 20.3698 31.441 19.9949C31.5929 19.9214 31.7465 19.8506 31.9016 19.7827Z" fill="url(#paint2_linear_272_479)"/>
<path d="M23.8963 0C24.4612 0.77771 25.3427 1.96479 25.3427 1.96479C25.0112 2.614 24.7316 3.29387 24.5091 3.99898C24.111 5.26137 23.8963 6.6047 23.8963 7.99795V0Z" fill="url(#paint3_linear_272_479)"/>
<path d="M22.7708 23.9672H22.7941C22.7903 23.9761 22.7864 23.985 22.7825 23.9938C22.9724 24.4267 23.1399 24.8715 23.2835 25.3268C23.6814 26.5882 23.896 27.9304 23.8964 29.3224V23.9672V21.3302V21.3279V21.3256C23.8963 20.8765 23.8739 20.4326 23.8303 19.9949C23.6898 18.5858 23.3289 17.2412 22.7825 15.9959C22.7786 15.987 22.7747 15.9781 22.7708 15.9692C22.5726 15.5203 22.3503 15.0843 22.1055 14.6629C21.1989 13.1023 19.9837 11.7418 18.5429 10.6639C17.9784 10.2416 17.3791 9.86259 16.7503 9.53203L15.891 10.6728L14.2972 12.7888L11.9017 15.9692L11.8332 16.0602C13.2639 16.2001 14.6285 16.5642 15.891 17.1168C16.8374 17.5309 17.7264 18.051 18.5429 18.6619C19.0853 19.0676 19.5957 19.5134 20.0697 19.9949C21.1948 21.1378 22.115 22.4815 22.7708 23.9672Z" fill="url(#paint4_linear_272_479)"/>
<path d="M18.1296 7.70077C18.8274 8.18267 19.477 8.72893 20.0697 9.33094C21.2016 10.4807 22.126 11.8337 22.7825 13.3299C22.9724 13.7627 23.1399 14.2076 23.2835 14.6629C23.4181 15.0895 23.5317 15.5254 23.6231 15.9692C23.6234 15.9705 23.6237 15.9718 23.6239 15.9731C23.8026 16.8415 23.8964 17.7408 23.8964 18.6619V15.9692V13.3176V10.666V10.6639C23.8964 10.2141 23.874 9.76937 23.8303 9.33094C23.6898 7.92185 23.3289 6.5773 22.7825 5.33197C22.4443 4.56133 22.0351 3.82868 21.5631 3.14223L18.1296 7.70077Z" fill="url(#paint5_linear_272_479)"/>
<path d="M15.891 19.7827C14.2442 19.062 12.4238 18.6619 10.5095 18.6619C10.2925 18.6619 10.0766 18.667 9.86209 18.6772L8.03656 21.1009L6.35134 23.3383L5.87765 23.9672L2.07596 29.0145L0.88616 30.5942L0 31.8C0.2517 31.4945 0.671814 30.9407 0.949355 30.6588C1.42335 30.1774 1.93373 29.7316 2.47607 29.3258C4.71367 27.6518 7.49525 26.6598 10.5095 26.6598C12.4238 26.6598 14.2442 27.0599 15.891 27.7807C16.8374 28.1949 17.7264 28.7149 18.5429 29.3258C19.0853 29.7316 19.5957 30.1774 20.0697 30.6588C20.4737 31.0693 20.8514 31.5056 21.1998 31.9651C21.8274 32.7928 22.3603 33.6957 22.7825 34.6578C22.9724 35.0906 23.1399 35.5354 23.2835 35.9908C23.6757 37.234 23.8944 38.6949 23.8964 40V31.9918C23.8955 31.551 23.8731 31.0886 23.8303 30.6588C23.6898 29.2497 23.3289 27.9052 22.7825 26.6598C22.5814 26.2015 22.3551 25.7566 22.1055 25.3268C21.8311 24.8545 21.5284 24.4006 21.1998 23.9672C20.4427 22.9686 19.5476 22.0795 18.5429 21.3279C17.8602 20.8171 17.1269 20.3698 16.3517 19.9949C16.1997 19.9214 16.0462 19.8506 15.891 19.7827Z" fill="url(#paint6_linear_272_479)"/>
<path d="M23.8964 0C23.3315 0.77771 22.45 1.96479 22.45 1.96479C22.7815 2.614 23.0611 3.29387 23.2835 3.99898C23.6817 5.26137 23.8964 6.6047 23.8964 7.99795V0Z" fill="url(#paint7_linear_272_479)"/>
<path d="M66.3479 11.4286C62.3877 11.4286 60 9.14286 60 5.85714C60 2.57143 62.3877 0 66.3479 0H97.8544V6.85714H70.1624C69.4636 6.85714 69.2015 7.37143 69.2015 7.71429C69.2015 8.05714 69.4636 8.57143 70.1624 8.57143H92.6712C96.6314 8.57143 99.0191 10.8571 99.0191 14.1429C99.0191 17.4286 96.6314 20 92.6712 20H60V13.1429H88.8567C89.5555 13.1429 89.8176 12.6286 89.8176 12.2857C89.8176 11.9429 89.5555 11.4286 88.8567 11.4286H66.3479Z" fill="#00A9FF"/>
<path d="M103.689 20V0H112.891V10.9714L129.081 0H142.417L127.654 10L142.417 20H129.081L120.986 14.5143L112.891 20H103.689Z" fill="#00A9FF"/>
<path d="M163.306 20V13.1429L146.213 0H158.356L167.907 7.37143L177.457 0H189.6L172.507 13.1429V20H163.306Z" fill="#00A9FF"/>
<line x1="60" y1="25.2663" x2="189.6" y2="25.2663" stroke="#89CFF3" stroke-width="0.666667"/>
<path d="M60 37.3V28.3H66.5475V30.0893H61.8456V32.2107H66.2879V33.8286H61.8456V37.3H60Z" fill="#89CFF3"/>
<path d="M75.7383 37.3V28.3H77.5839V37.3H75.7383Z" fill="#89CFF3"/>
<path d="M86.7817 37.3V28.3H88.924L92.5409 34.3536H92.7171V28.3H94.5256V37.3H92.4203L88.757 31.2464H88.5901V37.3H86.7817Z" fill="#89CFF3"/>
<path d="M110.152 37.3L109.669 35.7893H105.83L105.348 37.3H103.437L106.451 28.3H109.048L112.071 37.3H110.152ZM106.349 34.1714H109.15L107.926 30.325H107.574L106.349 34.1714Z" fill="#89CFF3"/>
<path d="M120.986 37.3V28.3H123.129L126.745 34.3536H126.922V28.3H128.73V37.3H126.625L122.962 31.2464H122.795V37.3H120.986Z" fill="#89CFF3"/>
<path d="M142.047 37.6C139.524 37.6 137.781 35.6286 137.781 32.8C137.781 29.9714 139.524 28 142.047 28C143.753 28 145.506 28.8786 145.887 31.525H144.115C143.781 30.3679 143.012 29.8536 142.047 29.8536C140.665 29.8536 139.608 31.0643 139.608 32.8C139.608 34.525 140.665 35.7464 142.047 35.7464C143.012 35.7464 143.781 35.2321 144.115 34.0643H145.887C145.506 36.7214 143.772 37.6 142.047 37.6Z" fill="#89CFF3"/>
<path d="M154.952 37.3V28.3H156.797V37.3H154.952Z" fill="#89CFF3"/>
<path d="M172.431 37.3L171.949 35.7893H168.11L167.627 37.3H165.717L168.731 28.3H171.328L174.351 37.3H172.431ZM168.629 34.1714H171.43L170.205 30.325H169.853L168.629 34.1714Z" fill="#89CFF3"/>
<path d="M183.266 37.3V28.3H185.111V35.5107H189.6V37.3H183.266Z" fill="#89CFF3"/>
<line x1="60" y1="39.6" x2="189.6" y2="39.6" stroke="#89CFF3" stroke-width="0.8"/>
<defs>
<linearGradient id="paint0_linear_272_479" x1="47.9927" y1="31.9385" x2="23.9172" y2="40.0517" gradientUnits="userSpaceOnUse">
<stop stop-color="#00A9FF"/>
<stop offset="0.497545" stop-color="#89CFF3"/>
<stop offset="1" stop-color="#00A9FF"/>
</linearGradient>
<linearGradient id="paint1_linear_272_479" x1="47.9927" y1="31.9385" x2="23.9172" y2="40.0517" gradientUnits="userSpaceOnUse">
<stop stop-color="#00A9FF"/>
<stop offset="0.497545" stop-color="#89CFF3"/>
<stop offset="1" stop-color="#00A9FF"/>
</linearGradient>
<linearGradient id="paint2_linear_272_479" x1="47.9927" y1="31.9385" x2="23.9172" y2="40.0517" gradientUnits="userSpaceOnUse">
<stop stop-color="#00A9FF"/>
<stop offset="0.497545" stop-color="#89CFF3"/>
<stop offset="1" stop-color="#00A9FF"/>
</linearGradient>
<linearGradient id="paint3_linear_272_479" x1="47.9927" y1="31.9385" x2="23.9172" y2="40.0517" gradientUnits="userSpaceOnUse">
<stop stop-color="#00A9FF"/>
<stop offset="0.497545" stop-color="#89CFF3"/>
<stop offset="1" stop-color="#00A9FF"/>
</linearGradient>
<linearGradient id="paint4_linear_272_479" x1="-0.2" y1="31.9385" x2="23.8755" y2="40.0517" gradientUnits="userSpaceOnUse">
<stop stop-color="#00A9FF"/>
<stop offset="0.497545" stop-color="#89CFF3"/>
<stop offset="1" stop-color="#00A9FF"/>
</linearGradient>
<linearGradient id="paint5_linear_272_479" x1="-0.2" y1="31.9385" x2="23.8755" y2="40.0517" gradientUnits="userSpaceOnUse">
<stop stop-color="#00A9FF"/>
<stop offset="0.497545" stop-color="#89CFF3"/>
<stop offset="1" stop-color="#00A9FF"/>
</linearGradient>
<linearGradient id="paint6_linear_272_479" x1="-0.2" y1="31.9385" x2="23.8755" y2="40.0517" gradientUnits="userSpaceOnUse">
<stop stop-color="#00A9FF"/>
<stop offset="0.497545" stop-color="#89CFF3"/>
<stop offset="1" stop-color="#00A9FF"/>
</linearGradient>
<linearGradient id="paint7_linear_272_479" x1="-0.2" y1="31.9385" x2="23.8755" y2="40.0517" gradientUnits="userSpaceOnUse">
<stop stop-color="#00A9FF"/>
<stop offset="0.497545" stop-color="#89CFF3"/>
<stop offset="1" stop-color="#00A9FF"/>
</linearGradient>
</defs>
</svg>
