<svg width="83" height="71" viewBox="0 0 83 71" fill="none" xmlns="http://www.w3.org/2000/svg">
<path d="M27.3006 70.344C18.9166 70.344 12.3246 67.176 7.52462 60.84C2.78862 54.44 0.420623 45.96 0.420623 35.4C0.420623 24.84 2.78862 16.392 7.52462 10.056C12.3246 3.656 18.9166 0.455996 27.3006 0.455996C35.7486 0.455996 42.3406 3.656 47.0766 10.056C51.8126 16.392 54.1806 24.84 54.1806 35.4C54.1806 45.96 51.8126 54.44 47.0766 60.84C42.3406 67.176 35.7486 70.344 27.3006 70.344ZM17.1246 51.816C19.4286 55.528 22.8206 57.384 27.3006 57.384C31.7806 57.384 35.1726 55.496 37.4766 51.72C39.8446 47.944 41.0286 42.504 41.0286 35.4C41.0286 28.232 39.8446 22.76 37.4766 18.984C35.1726 15.208 31.7806 13.32 27.3006 13.32C22.8206 13.32 19.4286 15.208 17.1246 18.984C14.8206 22.76 13.6686 28.232 13.6686 35.4C13.6686 42.568 14.8206 48.04 17.1246 51.816ZM70.5344 1.8H82.0544V69H68.8064V15.816L56.1344 19.368L52.8704 8.04L70.5344 1.8Z" fill="#C2E5F8"/>
</svg>
