<svg width="100" height="71" viewBox="0 0 100 71" fill="none" xmlns="http://www.w3.org/2000/svg">
<path d="M27.24 70.344C18.856 70.344 12.264 67.176 7.464 60.84C2.728 54.44 0.36 45.96 0.36 35.4C0.36 24.84 2.728 16.392 7.464 10.056C12.264 3.656 18.856 0.455996 27.24 0.455996C35.688 0.455996 42.28 3.656 47.016 10.056C51.752 16.392 54.12 24.84 54.12 35.4C54.12 45.96 51.752 54.44 47.016 60.84C42.28 67.176 35.688 70.344 27.24 70.344ZM17.064 51.816C19.368 55.528 22.76 57.384 27.24 57.384C31.72 57.384 35.112 55.496 37.416 51.72C39.784 47.944 40.968 42.504 40.968 35.4C40.968 28.232 39.784 22.76 37.416 18.984C35.112 15.208 31.72 13.32 27.24 13.32C22.76 13.32 19.368 15.208 17.064 18.984C14.76 22.76 13.608 28.232 13.608 35.4C13.608 42.568 14.76 48.04 17.064 51.816ZM83.838 29.064C88.382 30.408 92.062 32.776 94.878 36.168C97.758 39.496 99.198 43.528 99.198 48.264C99.198 55.176 96.862 60.584 92.19 64.488C87.582 68.392 81.918 70.344 75.198 70.344C69.95 70.344 65.246 69.16 61.086 66.792C56.99 64.36 54.014 60.808 52.158 56.136L63.486 49.608C65.15 54.792 69.054 57.384 75.198 57.384C78.59 57.384 81.214 56.584 83.07 54.984C84.99 53.32 85.95 51.08 85.95 48.264C85.95 45.512 84.99 43.304 83.07 41.64C81.214 39.976 78.59 39.144 75.198 39.144H72.318L67.23 31.464L80.478 14.184H54.174V1.8H96.414V12.744L83.838 29.064Z" fill="#C2E5F8"/>
</svg>
