<svg width="100" height="71" viewBox="0 0 100 71" fill="none" xmlns="http://www.w3.org/2000/svg">
<path d="M27.24 70.344C18.856 70.344 12.264 67.176 7.464 60.84C2.728 54.44 0.36 45.96 0.36 35.4C0.36 24.84 2.728 16.392 7.464 10.056C12.264 3.656 18.856 0.455996 27.24 0.455996C35.688 0.455996 42.28 3.656 47.016 10.056C51.752 16.392 54.12 24.84 54.12 35.4C54.12 45.96 51.752 54.44 47.016 60.84C42.28 67.176 35.688 70.344 27.24 70.344ZM17.064 51.816C19.368 55.528 22.76 57.384 27.24 57.384C31.72 57.384 35.112 55.496 37.416 51.72C39.784 47.944 40.968 42.504 40.968 35.4C40.968 28.232 39.784 22.76 37.416 18.984C35.112 15.208 31.72 13.32 27.24 13.32C22.76 13.32 19.368 15.208 17.064 18.984C14.76 22.76 13.608 28.232 13.608 35.4C13.608 42.568 14.76 48.04 17.064 51.816ZM54.5332 69V59.112L77.4773 35.496C82.5973 30.12 85.1573 25.64 85.1573 22.056C85.1573 19.432 84.3253 17.32 82.6613 15.72C81.0613 14.12 78.9813 13.32 76.4213 13.32C71.3653 13.32 67.6213 15.944 65.1893 21.192L54.0533 14.664C56.1653 10.056 59.2053 6.536 63.1733 4.10399C67.1413 1.672 71.4933 0.455996 76.2293 0.455996C82.3093 0.455996 87.5253 2.376 91.8773 6.216C96.2293 9.992 98.4053 15.112 98.4053 21.576C98.4053 28.552 94.7253 35.72 87.3653 43.08L74.2133 56.232H99.4613V69H54.5332Z" fill="#C2E5F8"/>
</svg>
